<?xml version="1.0" encoding="UTF-8" standalone="no"?>
<!DOCTYPE svg PUBLIC "-//W3C//DTD SVG 1.1//EN"
 "http://www.w3.org/Graphics/SVG/1.1/DTD/svg11.dtd">
<!-- Generated by graphviz version 2.38.0 (20140413.2041)
 -->
<!-- Title: G Pages: 1 -->
<svg width="554pt" height="152pt"
 viewBox="0.00 0.00 554.06 152.00" xmlns="http://www.w3.org/2000/svg" xmlns:xlink="http://www.w3.org/1999/xlink">
<g id="graph0" class="graph" transform="scale(1 1) rotate(0) translate(4 148)">
<title>G</title>
<polygon fill="white" stroke="none" points="-4,4 -4,-148 550.061,-148 550.061,4 -4,4"/>
<!-- Labeling -->
<g id="node1" class="node"><title>Labeling</title>
<ellipse fill="none" stroke="red" cx="376.173" cy="-72" rx="41.6928" ry="18"/>
<text text-anchor="middle" x="376.173" y="-68.3" font-family="Times New Roman,serif" font-size="14.00">Labeling</text>
</g>
<!-- Re&#45;Verify -->
<g id="node6" class="node"><title>Re&#45;Verify</title>
<ellipse fill="none" stroke="black" cx="499.915" cy="-72" rx="46.2923" ry="18"/>
<text text-anchor="middle" x="499.915" y="-68.3" font-family="Times New Roman,serif" font-size="14.00">Re&#45;Verify</text>
</g>
<!-- Labeling&#45;&gt;Re&#45;Verify -->
<g id="edge7" class="edge"><title>Labeling&#45;&gt;Re&#45;Verify</title>
<path fill="none" stroke="black" d="M418.05,-72C426.292,-72 435.084,-72 443.722,-72"/>
<polygon fill="black" stroke="black" points="443.749,-75.5001 453.749,-72 443.749,-68.5001 443.749,-75.5001"/>
</g>
<!-- Data acquisition -->
<g id="node2" class="node"><title>Data acquisition</title>
<ellipse fill="none" stroke="black" cx="68.8939" cy="-72" rx="68.7879" ry="18"/>
<text text-anchor="middle" x="68.8939" y="-68.3" font-family="Times New Roman,serif" font-size="14.00">Data acquisition</text>
</g>
<!-- Verifying -->
<g id="node3" class="node"><title>Verifying</title>
<ellipse fill="none" stroke="black" cx="236.182" cy="-126" rx="44.393" ry="18"/>
<text text-anchor="middle" x="236.182" y="-122.3" font-family="Times New Roman,serif" font-size="14.00">Verifying</text>
</g>
<!-- Data acquisition&#45;&gt;Verifying -->
<g id="edge1" class="edge"><title>Data acquisition&#45;&gt;Verifying</title>
<path fill="none" stroke="black" d="M112.89,-86.0469C137.102,-93.957 167.264,-103.811 191.575,-111.754"/>
<polygon fill="black" stroke="black" points="190.667,-115.139 201.26,-114.917 192.841,-108.485 190.667,-115.139"/>
</g>
<!-- Cleaning -->
<g id="node4" class="node"><title>Cleaning</title>
<ellipse fill="none" stroke="black" cx="236.182" cy="-72" rx="42.4939" ry="18"/>
<text text-anchor="middle" x="236.182" y="-68.3" font-family="Times New Roman,serif" font-size="14.00">Cleaning</text>
</g>
<!-- Data acquisition&#45;&gt;Cleaning -->
<g id="edge2" class="edge"><title>Data acquisition&#45;&gt;Cleaning</title>
<path fill="none" stroke="black" d="M138.077,-72C153.248,-72 169.089,-72 183.47,-72"/>
<polygon fill="black" stroke="black" points="183.653,-75.5001 193.653,-72 183.653,-68.5001 183.653,-75.5001"/>
</g>
<!-- Preprocessing -->
<g id="node5" class="node"><title>Preprocessing</title>
<ellipse fill="none" stroke="black" cx="236.182" cy="-18" rx="62.2891" ry="18"/>
<text text-anchor="middle" x="236.182" y="-14.3" font-family="Times New Roman,serif" font-size="14.00">Preprocessing</text>
</g>
<!-- Data acquisition&#45;&gt;Preprocessing -->
<g id="edge3" class="edge"><title>Data acquisition&#45;&gt;Preprocessing</title>
<path fill="none" stroke="black" d="M112.89,-57.9531C134.818,-50.7891 161.627,-42.0305 184.55,-34.5417"/>
<polygon fill="black" stroke="black" points="185.692,-37.8507 194.11,-31.4182 183.518,-31.1968 185.692,-37.8507"/>
</g>
<!-- Verifying&#45;&gt;Labeling -->
<g id="edge4" class="edge"><title>Verifying&#45;&gt;Labeling</title>
<path fill="none" stroke="black" d="M268.84,-113.611C288.575,-105.889 314.141,-95.8837 335.259,-87.6197"/>
<polygon fill="black" stroke="black" points="336.574,-90.8633 344.611,-83.9597 334.023,-84.3447 336.574,-90.8633"/>
</g>
<!-- Cleaning&#45;&gt;Labeling -->
<g id="edge5" class="edge"><title>Cleaning&#45;&gt;Labeling</title>
<path fill="none" stroke="black" d="M278.584,-72C292.903,-72 309.121,-72 324.123,-72"/>
<polygon fill="black" stroke="black" points="324.276,-75.5001 334.276,-72 324.276,-68.5001 324.276,-75.5001"/>
</g>
<!-- Preprocessing&#45;&gt;Labeling -->
<g id="edge6" class="edge"><title>Preprocessing&#45;&gt;Labeling</title>
<path fill="none" stroke="black" d="M274.161,-32.471C293.011,-39.8473 315.956,-48.8267 335.212,-56.362"/>
<polygon fill="black" stroke="black" points="334.03,-59.6579 344.618,-60.0429 336.581,-53.1393 334.03,-59.6579"/>
</g>
</g>
</svg>
