<?xml version="1.0" encoding="UTF-8" standalone="no"?>
<!DOCTYPE svg PUBLIC "-//W3C//DTD SVG 1.1//EN"
 "http://www.w3.org/Graphics/SVG/1.1/DTD/svg11.dtd">
<!-- Generated by graphviz version 2.38.0 (20140413.2041)
 -->
<!-- Title: G Pages: 1 -->
<svg width="429pt" height="216pt"
 viewBox="0.00 0.00 428.88 216.37" xmlns="http://www.w3.org/2000/svg" xmlns:xlink="http://www.w3.org/1999/xlink">
<g id="graph0" class="graph" transform="scale(1 1) rotate(0) translate(4 212.373)">
<title>G</title>
<polygon fill="white" stroke="none" points="-4,4 -4,-212.373 424.879,-212.373 424.879,4 -4,4"/>
<!-- Model -->
<g id="node1" class="node"><title>Model</title>
<path fill="none" stroke="black" d="M151.595,-136.373C151.595,-136.373 103.595,-136.373 103.595,-136.373 97.5952,-136.373 91.5952,-130.373 91.5952,-124.373 91.5952,-124.373 91.5952,-98.3727 91.5952,-98.3727 91.5952,-92.3727 97.5952,-86.3727 103.595,-86.3727 103.595,-86.3727 151.595,-86.3727 151.595,-86.3727 157.595,-86.3727 163.595,-92.3727 163.595,-98.3727 163.595,-98.3727 163.595,-124.373 163.595,-124.373 163.595,-130.373 157.595,-136.373 151.595,-136.373"/>
<text text-anchor="middle" x="127.595" y="-107.673" font-family="Times New Roman,serif" font-size="14.00">Model</text>
</g>
<!-- Prediction -->
<g id="node3" class="node"><title>Prediction</title>
<ellipse fill="none" stroke="black" cx="263.64" cy="-111.373" rx="48.1917" ry="18"/>
<text text-anchor="middle" x="263.64" y="-107.673" font-family="Times New Roman,serif" font-size="14.00">Prediction</text>
</g>
<!-- Model&#45;&gt;Prediction -->
<g id="edge2" class="edge"><title>Model&#45;&gt;Prediction</title>
<path fill="none" stroke="black" d="M163.814,-111.373C176.485,-111.373 191.13,-111.373 205.2,-111.373"/>
<polygon fill="black" stroke="black" points="205.307,-114.873 215.307,-111.373 205.307,-107.873 205.307,-114.873"/>
</g>
<!-- Data -->
<g id="node2" class="node"><title>Data</title>
<ellipse fill="none" stroke="black" cx="27.2976" cy="-111.373" rx="27.0966" ry="18"/>
<text text-anchor="middle" x="27.2976" y="-107.673" font-family="Times New Roman,serif" font-size="14.00">Data</text>
</g>
<!-- Data&#45;&gt;Model -->
<g id="edge1" class="edge"><title>Data&#45;&gt;Model</title>
<path fill="none" stroke="black" d="M54.6395,-111.373C62.8207,-111.373 72.0851,-111.373 81.1782,-111.373"/>
<polygon fill="black" stroke="black" points="81.3049,-114.873 91.3049,-111.373 81.3049,-107.873 81.3049,-114.873"/>
</g>
<!-- Loss -->
<g id="node5" class="node"><title>Loss</title>
<ellipse fill="none" stroke="black" cx="392.281" cy="-111.373" rx="28.6953" ry="18"/>
<text text-anchor="middle" x="392.281" y="-107.673" font-family="Times New Roman,serif" font-size="14.00">Loss</text>
</g>
<!-- Prediction&#45;&gt;Loss -->
<g id="edge4" class="edge"><title>Prediction&#45;&gt;Loss</title>
<path fill="none" stroke="black" d="M311.796,-111.373C325.558,-111.373 340.411,-111.373 353.511,-111.373"/>
<polygon fill="black" stroke="black" points="353.587,-114.873 363.587,-111.373 353.587,-107.873 353.587,-114.873"/>
</g>
<!-- Human Labels -->
<g id="node4" class="node"><title>Human Labels</title>
<ellipse fill="none" stroke="black" cx="263.64" cy="-190.373" rx="63.0888" ry="18"/>
<text text-anchor="middle" x="263.64" y="-186.673" font-family="Times New Roman,serif" font-size="14.00">Human Labels</text>
</g>
<!-- Human Labels&#45;&gt;Loss -->
<g id="edge3" class="edge"><title>Human Labels&#45;&gt;Loss</title>
<path fill="none" stroke="black" d="M293.506,-174.435C309.145,-165.601 328.69,-154.235 345.684,-143.373 351.816,-139.453 358.283,-135.073 364.358,-130.842"/>
<polygon fill="black" stroke="black" points="366.74,-133.445 372.893,-124.82 362.705,-127.725 366.74,-133.445"/>
</g>
<!-- Loss&#45;&gt;Model -->
<g id="edge5" class="edge"><title>Loss:s&#45;&gt;Model:s</title>
<path fill="none" stroke="black" d="M392.281,-92.3727C392.281,21.8591 142.877,31.8016 128.263,-75.3505"/>
<polygon fill="black" stroke="black" points="124.768,-75.162 127.595,-85.3727 131.753,-75.6278 124.768,-75.162"/>
<text text-anchor="middle" x="263.64" y="-17.1727" font-family="Times New Roman,serif" font-size="14.00">Update</text>
</g>
</g>
</svg>
