<?xml version="1.0" encoding="UTF-8" standalone="no"?>
<!DOCTYPE svg PUBLIC "-//W3C//DTD SVG 1.1//EN"
 "http://www.w3.org/Graphics/SVG/1.1/DTD/svg11.dtd">
<!-- Generated by graphviz version 2.38.0 (20140413.2041)
 -->
<!-- Title: G Pages: 1 -->
<svg width="595pt" height="134pt"
 viewBox="0.00 0.00 595.19 133.74" xmlns="http://www.w3.org/2000/svg" xmlns:xlink="http://www.w3.org/1999/xlink">
<g id="graph0" class="graph" transform="scale(1 1) rotate(0) translate(4 129.74)">
<title>G</title>
<polygon fill="white" stroke="none" points="-4,4 -4,-129.74 591.191,-129.74 591.191,4 -4,4"/>
<!-- Pretext tasks -->
<g id="node1" class="node"><title>Pretext tasks</title>
<ellipse fill="none" stroke="black" cx="278.317" cy="-107.74" rx="57.3905" ry="18"/>
<text text-anchor="middle" x="278.317" y="-104.04" font-family="Times New Roman,serif" font-size="14.00">Pretext tasks</text>
</g>
<!-- Generation&#45;based
methods -->
<g id="node2" class="node"><title>Generation&#45;based
methods</title>
<ellipse fill="none" stroke="black" cx="81.3173" cy="-26.8701" rx="81.135" ry="26.7407"/>
<text text-anchor="middle" x="81.3173" y="-30.6701" font-family="Times New Roman,serif" font-size="14.00">Generation&#45;based</text>
<text text-anchor="middle" x="81.3173" y="-15.6701" font-family="Times New Roman,serif" font-size="14.00">methods</text>
</g>
<!-- Pretext tasks&#45;&gt;Generation&#45;based
methods -->
<g id="edge1" class="edge"><title>Pretext tasks&#45;&gt;Generation&#45;based
methods</title>
<path fill="none" stroke="black" d="M244.452,-93.1819C216.095,-81.829 174.942,-65.3534 141.065,-51.7906"/>
<polygon fill="black" stroke="black" points="142.305,-48.5166 131.72,-48.0491 139.703,-55.0151 142.305,-48.5166"/>
</g>
<!-- Context&#45;based methods -->
<g id="node3" class="node"><title>Context&#45;based methods</title>
<ellipse fill="none" stroke="black" cx="278.317" cy="-26.8701" rx="97.4827" ry="18"/>
<text text-anchor="middle" x="278.317" y="-23.1701" font-family="Times New Roman,serif" font-size="14.00">Context&#45;based methods</text>
</g>
<!-- Pretext tasks&#45;&gt;Context&#45;based methods -->
<g id="edge2" class="edge"><title>Pretext tasks&#45;&gt;Context&#45;based methods</title>
<path fill="none" stroke="black" d="M278.317,-89.6265C278.317,-79.6013 278.317,-66.7063 278.317,-55.2947"/>
<polygon fill="black" stroke="black" points="281.817,-54.9503 278.317,-44.9503 274.817,-54.9503 281.817,-54.9503"/>
</g>
<!-- Free Semantic
Label&#45;based methods -->
<g id="node4" class="node"><title>Free Semantic
Label&#45;based methods</title>
<ellipse fill="none" stroke="black" cx="490.317" cy="-26.8701" rx="96.7474" ry="26.7407"/>
<text text-anchor="middle" x="490.317" y="-30.6701" font-family="Times New Roman,serif" font-size="14.00">Free Semantic</text>
<text text-anchor="middle" x="490.317" y="-15.6701" font-family="Times New Roman,serif" font-size="14.00">Label&#45;based methods</text>
</g>
<!-- Pretext tasks&#45;&gt;Free Semantic
Label&#45;based methods -->
<g id="edge3" class="edge"><title>Pretext tasks&#45;&gt;Free Semantic
Label&#45;based methods</title>
<path fill="none" stroke="black" d="M313.801,-93.539C343.882,-82.3481 387.829,-65.9988 424.346,-52.4133"/>
<polygon fill="black" stroke="black" points="425.79,-55.6104 433.942,-48.8432 423.349,-49.0497 425.79,-55.6104"/>
</g>
</g>
</svg>
