<?xml version="1.0" encoding="UTF-8" standalone="no"?>
<!DOCTYPE svg PUBLIC "-//W3C//DTD SVG 1.1//EN"
 "http://www.w3.org/Graphics/SVG/1.1/DTD/svg11.dtd">
<!-- Generated by graphviz version 2.38.0 (20140413.2041)
 -->
<!-- Title: G Pages: 1 -->
<svg width="293pt" height="465pt"
 viewBox="0.00 0.00 293.50 465.00" xmlns="http://www.w3.org/2000/svg" xmlns:xlink="http://www.w3.org/1999/xlink">
<g id="graph0" class="graph" transform="scale(1 1) rotate(0) translate(4 461)">
<title>G</title>
<polygon fill="white" stroke="none" points="-4,4 -4,-461 289.496,-461 289.496,4 -4,4"/>
<!-- Model1 -->
<g id="node1" class="node"><title>Model1</title>
<path fill="none" stroke="black" d="M69.496,-297C69.496,-297 21.496,-297 21.496,-297 15.496,-297 9.49596,-291 9.49596,-285 9.49596,-285 9.49596,-259 9.49596,-259 9.49596,-253 15.496,-247 21.496,-247 21.496,-247 69.496,-247 69.496,-247 75.496,-247 81.496,-253 81.496,-259 81.496,-259 81.496,-285 81.496,-285 81.496,-291 75.496,-297 69.496,-297"/>
<text text-anchor="middle" x="45.496" y="-268.3" font-family="Times New Roman,serif" font-size="14.00">Model</text>
</g>
<!-- z1 -->
<g id="node7" class="node"><title>z1</title>
<ellipse fill="none" stroke="black" cx="45.496" cy="-171" rx="27" ry="18"/>
<text text-anchor="middle" x="45.496" y="-167.3" font-family="Times New Roman,serif" font-size="14.00">z1</text>
</g>
<!-- Model1&#45;&gt;z1 -->
<g id="edge4" class="edge"><title>Model1&#45;&gt;z1</title>
<path fill="none" stroke="black" d="M45.496,-246.782C45.496,-232.41 45.496,-214.152 45.496,-199.274"/>
<polygon fill="black" stroke="black" points="48.9961,-199.142 45.496,-189.142 41.9961,-199.142 48.9961,-199.142"/>
<text text-anchor="middle" x="74.496" y="-217.8" font-family="Times New Roman,serif" font-size="14.00"> normalize</text>
</g>
<!-- Model2 -->
<g id="node2" class="node"><title>Model2</title>
<path fill="none" stroke="black" d="M251.496,-297C251.496,-297 203.496,-297 203.496,-297 197.496,-297 191.496,-291 191.496,-285 191.496,-285 191.496,-259 191.496,-259 191.496,-253 197.496,-247 203.496,-247 203.496,-247 251.496,-247 251.496,-247 257.496,-247 263.496,-253 263.496,-259 263.496,-259 263.496,-285 263.496,-285 263.496,-291 257.496,-297 251.496,-297"/>
<text text-anchor="middle" x="227.496" y="-268.3" font-family="Times New Roman,serif" font-size="14.00">Model</text>
</g>
<!-- z2 -->
<g id="node8" class="node"><title>z2</title>
<ellipse fill="none" stroke="black" cx="227.496" cy="-171" rx="27" ry="18"/>
<text text-anchor="middle" x="227.496" y="-167.3" font-family="Times New Roman,serif" font-size="14.00">z2</text>
</g>
<!-- Model2&#45;&gt;z2 -->
<g id="edge6" class="edge"><title>Model2&#45;&gt;z2</title>
<path fill="none" stroke="black" d="M227.496,-246.782C227.496,-232.41 227.496,-214.152 227.496,-199.274"/>
<polygon fill="black" stroke="black" points="230.996,-199.142 227.496,-189.142 223.996,-199.142 230.996,-199.142"/>
<text text-anchor="middle" x="256.496" y="-217.8" font-family="Times New Roman,serif" font-size="14.00"> normalize</text>
</g>
<!-- C -->
<g id="node3" class="node"><title>C</title>
<path fill="none" stroke="black" d="M169.996,-196C169.996,-196 102.996,-196 102.996,-196 96.996,-196 90.996,-190 90.996,-184 90.996,-184 90.996,-158 90.996,-158 90.996,-152 96.996,-146 102.996,-146 102.996,-146 169.996,-146 169.996,-146 175.996,-146 181.996,-152 181.996,-158 181.996,-158 181.996,-184 181.996,-184 181.996,-190 175.996,-196 169.996,-196"/>
<text text-anchor="middle" x="136.496" y="-167.3" font-family="Times New Roman,serif" font-size="14.00">prototypes C</text>
</g>
<!-- Q1 -->
<g id="node9" class="node"><title>Q1</title>
<ellipse fill="none" stroke="black" cx="103.496" cy="-91" rx="27" ry="18"/>
<text text-anchor="middle" x="103.496" y="-87.3" font-family="Times New Roman,serif" font-size="14.00">Q1</text>
</g>
<!-- C&#45;&gt;Q1 -->
<g id="edge9" class="edge"><title>C&#45;&gt;Q1</title>
<path fill="none" stroke="black" d="M126.235,-145.748C122.551,-137.04 118.38,-127.182 114.626,-118.307"/>
<polygon fill="black" stroke="black" points="117.732,-116.666 110.612,-108.82 111.285,-119.393 117.732,-116.666"/>
</g>
<!-- Q2 -->
<g id="node10" class="node"><title>Q2</title>
<ellipse fill="none" stroke="black" cx="175.496" cy="-91" rx="27" ry="18"/>
<text text-anchor="middle" x="175.496" y="-87.3" font-family="Times New Roman,serif" font-size="14.00">Q2</text>
</g>
<!-- C&#45;&gt;Q2 -->
<g id="edge10" class="edge"><title>C&#45;&gt;Q2</title>
<path fill="none" stroke="black" d="M148.622,-145.748C153.136,-136.72 158.268,-126.455 162.83,-117.333"/>
<polygon fill="black" stroke="black" points="165.985,-118.849 167.326,-108.339 159.724,-115.718 165.985,-118.849"/>
</g>
<!-- Image -->
<g id="node4" class="node"><title>Image</title>
<ellipse fill="none" stroke="black" cx="149.496" cy="-439" rx="32.4942" ry="18"/>
<text text-anchor="middle" x="149.496" y="-435.3" font-family="Times New Roman,serif" font-size="14.00">Image</text>
</g>
<!-- t1(Image) -->
<g id="node5" class="node"><title>t1(Image)</title>
<ellipse fill="none" stroke="black" cx="45.496" cy="-352" rx="45.4919" ry="18"/>
<text text-anchor="middle" x="45.496" y="-348.3" font-family="Times New Roman,serif" font-size="14.00">t1(Image)</text>
</g>
<!-- Image&#45;&gt;t1(Image) -->
<g id="edge1" class="edge"><title>Image&#45;&gt;t1(Image)</title>
<path fill="none" stroke="black" d="M131.854,-423.581C115.599,-410.295 91.2356,-390.383 72.527,-375.093"/>
<polygon fill="black" stroke="black" points="74.5953,-372.263 64.6374,-368.644 70.1654,-377.683 74.5953,-372.263"/>
<text text-anchor="middle" x="127.496" y="-391.8" font-family="Times New Roman,serif" font-size="14.00">transf t1</text>
</g>
<!-- t2(Image) -->
<g id="node6" class="node"><title>t2(Image)</title>
<ellipse fill="none" stroke="black" cx="227.496" cy="-352" rx="45.4919" ry="18"/>
<text text-anchor="middle" x="227.496" y="-348.3" font-family="Times New Roman,serif" font-size="14.00">t2(Image)</text>
</g>
<!-- Image&#45;&gt;t2(Image) -->
<g id="edge2" class="edge"><title>Image&#45;&gt;t2(Image)</title>
<path fill="none" stroke="black" d="M163.802,-422.41C175.529,-409.631 192.315,-391.339 205.71,-376.741"/>
<polygon fill="black" stroke="black" points="208.568,-378.803 212.75,-369.069 203.41,-374.071 208.568,-378.803"/>
<text text-anchor="middle" x="215.496" y="-391.8" font-family="Times New Roman,serif" font-size="14.00">transf t2</text>
</g>
<!-- t1(Image)&#45;&gt;Model1 -->
<g id="edge3" class="edge"><title>t1(Image)&#45;&gt;Model1</title>
<path fill="none" stroke="black" d="M45.496,-333.689C45.496,-325.863 45.496,-316.328 45.496,-307.156"/>
<polygon fill="black" stroke="black" points="48.9961,-307.066 45.496,-297.066 41.9961,-307.066 48.9961,-307.066"/>
</g>
<!-- t2(Image)&#45;&gt;Model2 -->
<g id="edge5" class="edge"><title>t2(Image)&#45;&gt;Model2</title>
<path fill="none" stroke="black" d="M227.496,-333.689C227.496,-325.863 227.496,-316.328 227.496,-307.156"/>
<polygon fill="black" stroke="black" points="230.996,-307.066 227.496,-297.066 223.996,-307.066 230.996,-307.066"/>
</g>
<!-- z1&#45;&gt;Q1 -->
<g id="edge7" class="edge"><title>z1&#45;&gt;Q1</title>
<path fill="none" stroke="black" d="M56.9549,-154.59C65.2166,-143.479 76.5206,-128.277 85.9193,-115.638"/>
<polygon fill="black" stroke="black" points="88.9024,-117.491 92.0608,-107.378 83.2851,-113.314 88.9024,-117.491"/>
</g>
<!-- z2&#45;&gt;Q2 -->
<g id="edge8" class="edge"><title>z2&#45;&gt;Q2</title>
<path fill="none" stroke="black" d="M216.973,-154.216C209.713,-143.326 199.922,-128.64 191.676,-116.271"/>
<polygon fill="black" stroke="black" points="194.463,-114.14 186.003,-107.761 188.638,-118.023 194.463,-114.14"/>
</g>
<!-- Sw. Prediction -->
<g id="node11" class="node"><title>Sw. Prediction</title>
<ellipse fill="none" stroke="black" cx="144.496" cy="-18" rx="64.189" ry="18"/>
<text text-anchor="middle" x="144.496" y="-14.3" font-family="Times New Roman,serif" font-size="14.00">Sw. Prediction</text>
</g>
<!-- Q1&#45;&gt;Sw. Prediction -->
<g id="edge11" class="edge"><title>Q1&#45;&gt;Sw. Prediction</title>
<path fill="none" stroke="black" d="M112.799,-73.889C117.741,-65.3316 123.935,-54.6059 129.533,-44.9115"/>
<polygon fill="black" stroke="black" points="132.688,-46.4474 134.658,-36.0373 126.626,-42.9469 132.688,-46.4474"/>
</g>
<!-- Q2&#45;&gt;Sw. Prediction -->
<g id="edge12" class="edge"><title>Q2&#45;&gt;Sw. Prediction</title>
<path fill="none" stroke="black" d="M168.306,-73.5327C164.695,-65.2629 160.23,-55.0367 156.146,-45.6824"/>
<polygon fill="black" stroke="black" points="159.288,-44.1326 152.079,-36.3686 152.873,-46.9336 159.288,-44.1326"/>
</g>
</g>
</svg>
