<?xml version="1.0" encoding="UTF-8" standalone="no"?>
<!DOCTYPE svg PUBLIC "-//W3C//DTD SVG 1.1//EN"
 "http://www.w3.org/Graphics/SVG/1.1/DTD/svg11.dtd">
<!-- Generated by graphviz version 2.38.0 (20140413.2041)
 -->
<!-- Title: G Pages: 1 -->
<svg width="361pt" height="133pt"
 viewBox="0.00 0.00 361.09 133.31" xmlns="http://www.w3.org/2000/svg" xmlns:xlink="http://www.w3.org/1999/xlink">
<g id="graph0" class="graph" transform="scale(1 1) rotate(0) translate(4 129.313)">
<title>G</title>
<polygon fill="white" stroke="none" points="-4,4 -4,-129.313 357.09,-129.313 357.09,4 -4,4"/>
<!-- Agent -->
<g id="node1" class="node"><title>Agent</title>
<path fill="none" stroke="black" d="M60,-91.3129C60,-91.3129 12,-91.3129 12,-91.3129 6,-91.3129 0,-85.3129 0,-79.3129 0,-79.3129 0,-53.3129 0,-53.3129 0,-47.3129 6,-41.3129 12,-41.3129 12,-41.3129 60,-41.3129 60,-41.3129 66,-41.3129 72,-47.3129 72,-53.3129 72,-53.3129 72,-79.3129 72,-79.3129 72,-85.3129 66,-91.3129 60,-91.3129"/>
<text text-anchor="middle" x="36" y="-62.6129" font-family="Times New Roman,serif" font-size="14.00">Agent</text>
</g>
<!-- Environment -->
<g id="node2" class="node"><title>Environment</title>
<ellipse fill="none" stroke="black" cx="296.545" cy="-66.3129" rx="56.59" ry="18"/>
<text text-anchor="middle" x="296.545" y="-62.6129" font-family="Times New Roman,serif" font-size="14.00">Environment</text>
</g>
<!-- Agent&#45;&gt;Environment -->
<g id="edge1" class="edge"><title>Agent:n&#45;&gt;Environment:n</title>
<path fill="none" stroke="black" d="M36,-92.3129C36,-118.501 249.061,-115.283 289.843,-93.0119"/>
<polygon fill="black" stroke="black" points="292.619,-95.1534 296.545,-85.3129 287.339,-90.5572 292.619,-95.1534"/>
<text text-anchor="middle" x="156" y="-114.113" font-family="Times New Roman,serif" font-size="14.00">interacts</text>
</g>
<!-- Environment&#45;&gt;Agent -->
<g id="edge2" class="edge"><title>Environment:s&#45;&gt;Agent:s</title>
<path fill="none" stroke="black" d="M296.545,-47.3129C296.545,7.10005 66.5952,16.5726 38.7498,-30.5031"/>
<polygon fill="black" stroke="black" points="35.329,-29.7393 36,-40.3129 42.0692,-31.6287 35.329,-29.7393"/>
<text text-anchor="middle" x="156" y="-10.1129" font-family="Times New Roman,serif" font-size="14.00">Reward &amp; State update</text>
</g>
</g>
</svg>
