<?xml version="1.0" encoding="UTF-8" standalone="no"?>
<!DOCTYPE svg PUBLIC "-//W3C//DTD SVG 1.1//EN"
 "http://www.w3.org/Graphics/SVG/1.1/DTD/svg11.dtd">
<!-- Generated by graphviz version 2.38.0 (20140413.2041)
 -->
<!-- Title: G Pages: 1 -->
<svg width="340pt" height="418pt"
 viewBox="0.00 0.00 340.47 418.00" xmlns="http://www.w3.org/2000/svg" xmlns:xlink="http://www.w3.org/1999/xlink">
<g id="graph0" class="graph" transform="scale(1 1) rotate(0) translate(4 414)">
<title>G</title>
<polygon fill="white" stroke="none" points="-4,4 -4,-414 336.474,-414 336.474,4 -4,4"/>
<!-- Model -->
<g id="node1" class="node"><title>Model</title>
<path fill="none" stroke="black" d="M156.68,-194C156.68,-194 108.68,-194 108.68,-194 102.68,-194 96.6802,-188 96.6802,-182 96.6802,-182 96.6802,-156 96.6802,-156 96.6802,-150 102.68,-144 108.68,-144 108.68,-144 156.68,-144 156.68,-144 162.68,-144 168.68,-150 168.68,-156 168.68,-156 168.68,-182 168.68,-182 168.68,-188 162.68,-194 156.68,-194"/>
<text text-anchor="middle" x="132.68" y="-165.3" font-family="Times New Roman,serif" font-size="14.00">Model</text>
</g>
<!-- Prediction -->
<g id="node5" class="node"><title>Prediction</title>
<ellipse fill="none" stroke="black" cx="132.68" cy="-90" rx="48.1917" ry="18"/>
<text text-anchor="middle" x="132.68" y="-86.3" font-family="Times New Roman,serif" font-size="14.00">Prediction</text>
</g>
<!-- Model&#45;&gt;Prediction -->
<g id="edge4" class="edge"><title>Model&#45;&gt;Prediction</title>
<path fill="none" stroke="black" d="M132.68,-143.637C132.68,-135.672 132.68,-126.769 132.68,-118.584"/>
<polygon fill="black" stroke="black" points="136.18,-118.376 132.68,-108.376 129.18,-118.376 136.18,-118.376"/>
</g>
<!-- Image -->
<g id="node2" class="node"><title>Image</title>
<ellipse fill="none" stroke="black" cx="132.68" cy="-392" rx="32.4942" ry="18"/>
<text text-anchor="middle" x="132.68" y="-388.3" font-family="Times New Roman,serif" font-size="14.00">Image</text>
</g>
<!-- Randomly rotate -->
<g id="node3" class="node"><title>Randomly rotate</title>
<ellipse fill="none" stroke="black" cx="132.68" cy="-320" rx="71.4873" ry="18"/>
<text text-anchor="middle" x="132.68" y="-316.3" font-family="Times New Roman,serif" font-size="14.00">Randomly rotate</text>
</g>
<!-- Image&#45;&gt;Randomly rotate -->
<g id="edge1" class="edge"><title>Image&#45;&gt;Randomly rotate</title>
<path fill="none" stroke="black" d="M132.68,-373.697C132.68,-365.983 132.68,-356.712 132.68,-348.112"/>
<polygon fill="black" stroke="black" points="136.18,-348.104 132.68,-338.104 129.18,-348.104 136.18,-348.104"/>
</g>
<!-- Rotated Image -->
<g id="node4" class="node"><title>Rotated Image</title>
<ellipse fill="none" stroke="black" cx="132.68" cy="-248" rx="63.8893" ry="18"/>
<text text-anchor="middle" x="132.68" y="-244.3" font-family="Times New Roman,serif" font-size="14.00">Rotated Image</text>
</g>
<!-- Randomly rotate&#45;&gt;Rotated Image -->
<g id="edge2" class="edge"><title>Randomly rotate&#45;&gt;Rotated Image</title>
<path fill="none" stroke="black" d="M132.68,-301.697C132.68,-293.983 132.68,-284.712 132.68,-276.112"/>
<polygon fill="black" stroke="black" points="136.18,-276.104 132.68,-266.104 129.18,-276.104 136.18,-276.104"/>
</g>
<!-- Pseudolabel=90° -->
<g id="node7" class="node"><title>Pseudolabel=90°</title>
<ellipse fill="none" stroke="black" cx="259.68" cy="-169" rx="72.5877" ry="18"/>
<text text-anchor="middle" x="259.68" y="-165.3" font-family="Times New Roman,serif" font-size="14.00">Pseudolabel=90°</text>
</g>
<!-- Randomly rotate&#45;&gt;Pseudolabel=90° -->
<g id="edge6" class="edge"><title>Randomly rotate&#45;&gt;Pseudolabel=90°:n</title>
<path fill="none" stroke="black" d="M164.4,-303.721C199.666,-284.412 252.551,-247.624 259.023,-198.078"/>
<polygon fill="black" stroke="black" points="262.522,-198.206 259.68,-188 255.537,-197.751 262.522,-198.206"/>
</g>
<!-- Rotated Image&#45;&gt;Model -->
<g id="edge3" class="edge"><title>Rotated Image&#45;&gt;Model</title>
<path fill="none" stroke="black" d="M132.68,-229.911C132.68,-222.332 132.68,-213.13 132.68,-204.235"/>
<polygon fill="black" stroke="black" points="136.18,-204.05 132.68,-194.05 129.18,-204.05 136.18,-204.05"/>
</g>
<!-- Loss -->
<g id="node6" class="node"><title>Loss</title>
<ellipse fill="none" stroke="black" cx="132.68" cy="-18" rx="28.6953" ry="18"/>
<text text-anchor="middle" x="132.68" y="-14.3" font-family="Times New Roman,serif" font-size="14.00">Loss</text>
</g>
<!-- Prediction&#45;&gt;Loss -->
<g id="edge5" class="edge"><title>Prediction&#45;&gt;Loss</title>
<path fill="none" stroke="black" d="M132.68,-71.6966C132.68,-63.9827 132.68,-54.7125 132.68,-46.1124"/>
<polygon fill="black" stroke="black" points="136.18,-46.1043 132.68,-36.1043 129.18,-46.1044 136.18,-46.1043"/>
</g>
<!-- Loss&#45;&gt;Model -->
<g id="edge8" class="edge"><title>Loss:w&#45;&gt;Model:w</title>
<path fill="none" stroke="black" d="M102.68,-18C39.0398,-18 29.4026,-153.494 85.6684,-167.785"/>
<polygon fill="black" stroke="black" points="85.3312,-171.269 95.6802,-169 86.1749,-164.32 85.3312,-171.269"/>
<text text-anchor="middle" x="24.5" y="-93.8432" font-family="Times New Roman,serif" font-size="14.00">Update &#160;</text>
</g>
<!-- Pseudolabel=90°&#45;&gt;Loss -->
<g id="edge7" class="edge"><title>Pseudolabel=90°:s&#45;&gt;Loss:e</title>
<path fill="none" stroke="black" d="M259.68,-150C259.68,-80.7514 237.789,-23.8134 173,-18.4181"/>
<polygon fill="black" stroke="black" points="172.814,-14.9078 162.68,-18 172.53,-21.902 172.814,-14.9078"/>
</g>
</g>
</svg>
