<?xml version="1.0" encoding="UTF-8" standalone="no"?>
<!DOCTYPE svg PUBLIC "-//W3C//DTD SVG 1.1//EN"
 "http://www.w3.org/Graphics/SVG/1.1/DTD/svg11.dtd">
<!-- Generated by graphviz version 2.38.0 (20140413.2041)
 -->
<!-- Title: G Pages: 1 -->
<svg width="427pt" height="239pt"
 viewBox="0.00 0.00 426.98 239.41" xmlns="http://www.w3.org/2000/svg" xmlns:xlink="http://www.w3.org/1999/xlink">
<g id="graph0" class="graph" transform="scale(1 1) rotate(0) translate(4 235.405)">
<title>G</title>
<polygon fill="white" stroke="none" points="-4,4 -4,-235.405 422.976,-235.405 422.976,4 -4,4"/>
<!-- Model -->
<g id="node1" class="node"><title>Model</title>
<path fill="none" stroke="black" d="M155.193,-134.535C155.193,-134.535 107.193,-134.535 107.193,-134.535 101.193,-134.535 95.1931,-128.535 95.1931,-122.535 95.1931,-122.535 95.1931,-96.5352 95.1931,-96.5352 95.1931,-90.5352 101.193,-84.5352 107.193,-84.5352 107.193,-84.5352 155.193,-84.5352 155.193,-84.5352 161.193,-84.5352 167.193,-90.5352 167.193,-96.5352 167.193,-96.5352 167.193,-122.535 167.193,-122.535 167.193,-128.535 161.193,-134.535 155.193,-134.535"/>
<text text-anchor="middle" x="131.193" y="-105.835" font-family="Times New Roman,serif" font-size="14.00">Model</text>
</g>
<!-- Prediction -->
<g id="node3" class="node"><title>Prediction</title>
<ellipse fill="none" stroke="black" cx="266.286" cy="-109.535" rx="48.1917" ry="18"/>
<text text-anchor="middle" x="266.286" y="-105.835" font-family="Times New Roman,serif" font-size="14.00">Prediction</text>
</g>
<!-- Model&#45;&gt;Prediction -->
<g id="edge2" class="edge"><title>Model&#45;&gt;Prediction</title>
<path fill="none" stroke="black" d="M167.51,-109.535C179.784,-109.535 193.89,-109.535 207.499,-109.535"/>
<polygon fill="black" stroke="black" points="207.771,-113.035 217.771,-109.535 207.771,-106.035 207.771,-113.035"/>
</g>
<!-- Data -->
<g id="node2" class="node"><title>Data</title>
<ellipse fill="none" stroke="black" cx="27.2976" cy="-109.535" rx="27.0966" ry="18"/>
<text text-anchor="middle" x="27.2976" y="-105.835" font-family="Times New Roman,serif" font-size="14.00">Data</text>
</g>
<!-- Data&#45;&gt;Model -->
<g id="edge1" class="edge"><title>Data&#45;&gt;Model</title>
<path fill="none" stroke="black" d="M54.8034,-109.535C64.0023,-109.535 74.5944,-109.535 84.8767,-109.535"/>
<polygon fill="black" stroke="black" points="84.9927,-113.035 94.9927,-109.535 84.9927,-106.035 84.9927,-113.035"/>
</g>
<!-- Loss -->
<g id="node6" class="node"><title>Loss</title>
<ellipse fill="none" stroke="black" cx="390.378" cy="-109.535" rx="28.6953" ry="18"/>
<text text-anchor="middle" x="390.378" y="-105.835" font-family="Times New Roman,serif" font-size="14.00">Loss</text>
</g>
<!-- Prediction&#45;&gt;Loss -->
<g id="edge5" class="edge"><title>Prediction&#45;&gt;Loss</title>
<path fill="none" stroke="black" d="M314.49,-109.535C326.717,-109.535 339.727,-109.535 351.413,-109.535"/>
<polygon fill="black" stroke="black" points="351.713,-113.035 361.713,-109.535 351.713,-106.035 351.713,-113.035"/>
</g>
<!-- Pretext
task -->
<g id="node4" class="node"><title>Pretext
task</title>
<ellipse fill="none" stroke="black" cx="131.193" cy="-204.535" rx="39.6962" ry="26.7407"/>
<text text-anchor="middle" x="131.193" y="-208.335" font-family="Times New Roman,serif" font-size="14.00">Pretext</text>
<text text-anchor="middle" x="131.193" y="-193.335" font-family="Times New Roman,serif" font-size="14.00">task</text>
</g>
<!-- Pseudolabels -->
<g id="node5" class="node"><title>Pseudolabels</title>
<ellipse fill="none" stroke="black" cx="266.286" cy="-204.535" rx="58.4896" ry="18"/>
<text text-anchor="middle" x="266.286" y="-200.835" font-family="Times New Roman,serif" font-size="14.00">Pseudolabels</text>
</g>
<!-- Pretext
task&#45;&gt;Pseudolabels -->
<g id="edge3" class="edge"><title>Pretext
task&#45;&gt;Pseudolabels</title>
<path fill="none" stroke="black" d="M171.047,-204.535C179.297,-204.535 188.239,-204.535 197.218,-204.535"/>
<polygon fill="black" stroke="black" points="197.336,-208.035 207.336,-204.535 197.336,-201.035 197.336,-208.035"/>
</g>
<!-- Pseudolabels&#45;&gt;Loss -->
<g id="edge4" class="edge"><title>Pseudolabels&#45;&gt;Loss</title>
<path fill="none" stroke="black" d="M288.833,-187.77C309.714,-171.522 341.402,-146.865 363.608,-129.587"/>
<polygon fill="black" stroke="black" points="365.87,-132.262 371.613,-123.359 361.571,-126.737 365.87,-132.262"/>
</g>
<!-- Loss&#45;&gt;Model -->
<g id="edge6" class="edge"><title>Loss:s&#45;&gt;Model:s</title>
<path fill="none" stroke="black" d="M390.378,-90.5352C390.378,21.2116 146.648,31.1772 131.891,-73.4051"/>
<polygon fill="black" stroke="black" points="128.389,-73.3181 131.193,-83.5352 135.373,-73.7995 128.389,-73.3181"/>
<text text-anchor="middle" x="266.286" y="-16.3352" font-family="Times New Roman,serif" font-size="14.00">Update</text>
</g>
</g>
</svg>
