<?xml version="1.0" encoding="UTF-8" standalone="no"?>
<!DOCTYPE svg PUBLIC "-//W3C//DTD SVG 1.1//EN"
 "http://www.w3.org/Graphics/SVG/1.1/DTD/svg11.dtd">
<!-- Generated by graphviz version 2.38.0 (20140413.2041)
 -->
<!-- Title: G Pages: 1 -->
<svg width="399pt" height="134pt"
 viewBox="0.00 0.00 398.98 134.38" xmlns="http://www.w3.org/2000/svg" xmlns:xlink="http://www.w3.org/1999/xlink">
<g id="graph0" class="graph" transform="scale(1 1) rotate(0) translate(4 130.379)">
<title>G</title>
<polygon fill="white" stroke="none" points="-4,4 -4,-130.379 394.982,-130.379 394.982,4 -4,4"/>
<!-- Model -->
<g id="node1" class="node"><title>Model</title>
<path fill="none" stroke="black" d="M151.595,-126.379C151.595,-126.379 103.595,-126.379 103.595,-126.379 97.5952,-126.379 91.5952,-120.379 91.5952,-114.379 91.5952,-114.379 91.5952,-88.3786 91.5952,-88.3786 91.5952,-82.3786 97.5952,-76.3786 103.595,-76.3786 103.595,-76.3786 151.595,-76.3786 151.595,-76.3786 157.595,-76.3786 163.595,-82.3786 163.595,-88.3786 163.595,-88.3786 163.595,-114.379 163.595,-114.379 163.595,-120.379 157.595,-126.379 151.595,-126.379"/>
<text text-anchor="middle" x="127.595" y="-97.6786" font-family="Times New Roman,serif" font-size="14.00">Model</text>
</g>
<!-- Prediction -->
<g id="node3" class="node"><title>Prediction</title>
<ellipse fill="none" stroke="black" cx="248.691" cy="-101.379" rx="48.1917" ry="18"/>
<text text-anchor="middle" x="248.691" y="-97.6786" font-family="Times New Roman,serif" font-size="14.00">Prediction</text>
</g>
<!-- Model&#45;&gt;Prediction -->
<g id="edge2" class="edge"><title>Model&#45;&gt;Prediction</title>
<path fill="none" stroke="black" d="M163.684,-101.379C172.059,-101.379 181.215,-101.379 190.305,-101.379"/>
<polygon fill="black" stroke="black" points="190.493,-104.879 200.493,-101.379 190.493,-97.8787 190.493,-104.879"/>
</g>
<!-- Data -->
<g id="node2" class="node"><title>Data</title>
<ellipse fill="none" stroke="black" cx="27.2976" cy="-101.379" rx="27.0966" ry="18"/>
<text text-anchor="middle" x="27.2976" y="-97.6786" font-family="Times New Roman,serif" font-size="14.00">Data</text>
</g>
<!-- Data&#45;&gt;Model -->
<g id="edge1" class="edge"><title>Data&#45;&gt;Model</title>
<path fill="none" stroke="black" d="M54.6395,-101.379C62.8207,-101.379 72.0851,-101.379 81.1782,-101.379"/>
<polygon fill="black" stroke="black" points="81.3049,-104.879 91.3049,-101.379 81.3049,-97.8787 81.3049,-104.879"/>
</g>
<!-- Loss -->
<g id="node4" class="node"><title>Loss</title>
<ellipse fill="none" stroke="black" cx="362.384" cy="-101.379" rx="28.6953" ry="18"/>
<text text-anchor="middle" x="362.384" y="-97.6786" font-family="Times New Roman,serif" font-size="14.00">Loss</text>
</g>
<!-- Prediction&#45;&gt;Loss -->
<g id="edge3" class="edge"><title>Prediction&#45;&gt;Loss</title>
<path fill="none" stroke="black" d="M297.059,-101.379C305.936,-101.379 315.105,-101.379 323.641,-101.379"/>
<polygon fill="black" stroke="black" points="323.678,-104.879 333.678,-101.379 323.678,-97.8787 323.678,-104.879"/>
</g>
<!-- Loss&#45;&gt;Model -->
<g id="edge4" class="edge"><title>Loss:s&#45;&gt;Model:s</title>
<path fill="none" stroke="black" d="M362.384,-82.3786C362.384,18.5521 142.928,28.4462 128.354,-65.3476"/>
<polygon fill="black" stroke="black" points="124.86,-65.1429 127.595,-75.3786 131.84,-65.6713 124.86,-65.1429"/>
<text text-anchor="middle" x="248.691" y="-13.1786" font-family="Times New Roman,serif" font-size="14.00">Update</text>
</g>
</g>
</svg>
